<mxfile host="app.diagrams.net" modified="2023-12-18T05:32:16.770Z" agent="Mozilla/5.0 (Windows NT 10.0; Win64; x64) AppleWebKit/537.36 (KHTML, like Gecko) Chrome/119.0.0.0 Safari/537.36 OPR/105.0.0.0" etag="AbN70HHtjLCMXyZZcqLJ" version="22.1.11" type="github">
  <diagram name="Page-1" id="Z7k3q4b2fMeRjvXkRtfo">
    <mxGraphModel dx="1840" dy="799" grid="1" gridSize="10" guides="1" tooltips="1" connect="1" arrows="1" fold="1" page="1" pageScale="1" pageWidth="850" pageHeight="1100" math="0" shadow="0">
      <root>
        <mxCell id="0" />
        <mxCell id="1" parent="0" />
        <mxCell id="01EeXhT7YWaGcu1_lApe-1" value="&lt;font style=&quot;font-size: 18px;&quot;&gt;Người chơi&lt;/font&gt;" style="rounded=0;whiteSpace=wrap;html=1;" vertex="1" parent="1">
          <mxGeometry x="40" y="40" width="160" height="90" as="geometry" />
        </mxCell>
        <mxCell id="01EeXhT7YWaGcu1_lApe-2" value="" style="edgeStyle=segmentEdgeStyle;endArrow=classic;html=1;curved=0;rounded=0;endSize=8;startSize=8;" edge="1" parent="1">
          <mxGeometry width="50" height="50" relative="1" as="geometry">
            <mxPoint x="200" y="90" as="sourcePoint" />
            <mxPoint x="360" y="160" as="targetPoint" />
          </mxGeometry>
        </mxCell>
        <mxCell id="01EeXhT7YWaGcu1_lApe-3" value="&lt;font style=&quot;font-size: 18px;&quot;&gt;Sự kiện chết&lt;/font&gt;" style="rounded=1;whiteSpace=wrap;html=1;" vertex="1" parent="1">
          <mxGeometry x="290" y="160" width="150" height="110" as="geometry" />
        </mxCell>
        <mxCell id="01EeXhT7YWaGcu1_lApe-4" value="" style="line;strokeWidth=2;html=1;" vertex="1" parent="1">
          <mxGeometry x="290" y="180" width="150" height="10" as="geometry" />
        </mxCell>
        <mxCell id="01EeXhT7YWaGcu1_lApe-5" value="&lt;font style=&quot;font-size: 16px;&quot;&gt;1.0&lt;/font&gt;" style="text;html=1;align=center;verticalAlign=middle;resizable=0;points=[];autosize=1;strokeColor=none;fillColor=none;" vertex="1" parent="1">
          <mxGeometry x="340" y="158" width="50" height="30" as="geometry" />
        </mxCell>
        <mxCell id="01EeXhT7YWaGcu1_lApe-6" value="&lt;font style=&quot;font-size: 14px;&quot;&gt;Bị hạ gục&lt;/font&gt;" style="text;html=1;align=center;verticalAlign=middle;resizable=0;points=[];autosize=1;strokeColor=none;fillColor=none;" vertex="1" parent="1">
          <mxGeometry x="252" y="62" width="80" height="30" as="geometry" />
        </mxCell>
        <mxCell id="01EeXhT7YWaGcu1_lApe-7" value="&lt;font style=&quot;font-size: 16px;&quot;&gt;Respawn&lt;br&gt;(Hồi sinh)&lt;br&gt;&lt;/font&gt;" style="rounded=1;whiteSpace=wrap;html=1;" vertex="1" parent="1">
          <mxGeometry x="570" y="160" width="140" height="110" as="geometry" />
        </mxCell>
        <mxCell id="01EeXhT7YWaGcu1_lApe-8" value="" style="line;strokeWidth=2;html=1;" vertex="1" parent="1">
          <mxGeometry x="570" y="180" width="140" height="10" as="geometry" />
        </mxCell>
        <mxCell id="01EeXhT7YWaGcu1_lApe-9" value="&lt;font style=&quot;font-size: 16px;&quot;&gt;2.0&lt;/font&gt;" style="text;html=1;align=center;verticalAlign=middle;resizable=0;points=[];autosize=1;strokeColor=none;fillColor=none;" vertex="1" parent="1">
          <mxGeometry x="615" y="158" width="50" height="30" as="geometry" />
        </mxCell>
        <mxCell id="01EeXhT7YWaGcu1_lApe-11" value="" style="edgeStyle=segmentEdgeStyle;endArrow=classic;html=1;curved=0;rounded=0;endSize=8;startSize=8;" edge="1" parent="1" target="01EeXhT7YWaGcu1_lApe-7">
          <mxGeometry width="50" height="50" relative="1" as="geometry">
            <mxPoint x="440" y="220" as="sourcePoint" />
            <mxPoint x="520" y="220" as="targetPoint" />
          </mxGeometry>
        </mxCell>
        <mxCell id="01EeXhT7YWaGcu1_lApe-12" value="&lt;font style=&quot;font-size: 18px;&quot;&gt;Tín hiệu respawn&lt;/font&gt;" style="rounded=1;whiteSpace=wrap;html=1;" vertex="1" parent="1">
          <mxGeometry x="570" y="350" width="150" height="110" as="geometry" />
        </mxCell>
        <mxCell id="01EeXhT7YWaGcu1_lApe-13" value="" style="line;strokeWidth=2;html=1;" vertex="1" parent="1">
          <mxGeometry x="570" y="370" width="150" height="10" as="geometry" />
        </mxCell>
        <mxCell id="01EeXhT7YWaGcu1_lApe-14" value="&lt;font style=&quot;font-size: 16px;&quot;&gt;3.0&lt;/font&gt;" style="text;html=1;align=center;verticalAlign=middle;resizable=0;points=[];autosize=1;strokeColor=none;fillColor=none;" vertex="1" parent="1">
          <mxGeometry x="618" y="348" width="50" height="30" as="geometry" />
        </mxCell>
        <mxCell id="01EeXhT7YWaGcu1_lApe-15" value="" style="edgeStyle=segmentEdgeStyle;endArrow=classic;html=1;curved=0;rounded=0;endSize=8;startSize=8;exitX=0.5;exitY=1;exitDx=0;exitDy=0;" edge="1" parent="1" source="01EeXhT7YWaGcu1_lApe-7" target="01EeXhT7YWaGcu1_lApe-14">
          <mxGeometry width="50" height="50" relative="1" as="geometry">
            <mxPoint x="690" y="300" as="sourcePoint" />
            <mxPoint x="740" y="250" as="targetPoint" />
          </mxGeometry>
        </mxCell>
        <mxCell id="01EeXhT7YWaGcu1_lApe-16" value="&lt;font style=&quot;font-size: 18px;&quot;&gt;Hệ thống game&lt;/font&gt;" style="rounded=1;whiteSpace=wrap;html=1;" vertex="1" parent="1">
          <mxGeometry x="570" y="520" width="150" height="100" as="geometry" />
        </mxCell>
        <mxCell id="01EeXhT7YWaGcu1_lApe-17" value="" style="line;strokeWidth=2;html=1;" vertex="1" parent="1">
          <mxGeometry x="570" y="540" width="150" height="10" as="geometry" />
        </mxCell>
        <mxCell id="01EeXhT7YWaGcu1_lApe-18" value="&lt;font style=&quot;font-size: 16px;&quot;&gt;4.0&lt;/font&gt;" style="text;html=1;align=center;verticalAlign=middle;resizable=0;points=[];autosize=1;strokeColor=none;fillColor=none;" vertex="1" parent="1">
          <mxGeometry x="618" y="517" width="50" height="30" as="geometry" />
        </mxCell>
        <mxCell id="01EeXhT7YWaGcu1_lApe-19" value="" style="edgeStyle=segmentEdgeStyle;endArrow=classic;html=1;curved=0;rounded=0;endSize=8;startSize=8;exitX=0.5;exitY=1;exitDx=0;exitDy=0;" edge="1" parent="1" source="01EeXhT7YWaGcu1_lApe-12">
          <mxGeometry width="50" height="50" relative="1" as="geometry">
            <mxPoint x="700" y="500" as="sourcePoint" />
            <mxPoint x="649" y="520" as="targetPoint" />
          </mxGeometry>
        </mxCell>
        <mxCell id="01EeXhT7YWaGcu1_lApe-20" value="&lt;font style=&quot;font-size: 16px;&quot;&gt;Cập nhật trạng thái nhân vật&lt;/font&gt;" style="rounded=1;whiteSpace=wrap;html=1;" vertex="1" parent="1">
          <mxGeometry x="305" y="520" width="165" height="105" as="geometry" />
        </mxCell>
        <mxCell id="01EeXhT7YWaGcu1_lApe-22" value="" style="line;strokeWidth=2;html=1;" vertex="1" parent="1">
          <mxGeometry x="305" y="540" width="165" height="10" as="geometry" />
        </mxCell>
        <mxCell id="01EeXhT7YWaGcu1_lApe-23" value="&lt;font style=&quot;font-size: 16px;&quot;&gt;5.0&lt;/font&gt;" style="text;html=1;align=center;verticalAlign=middle;resizable=0;points=[];autosize=1;strokeColor=none;fillColor=none;" vertex="1" parent="1">
          <mxGeometry x="362.5" y="517" width="50" height="30" as="geometry" />
        </mxCell>
        <mxCell id="01EeXhT7YWaGcu1_lApe-24" value="" style="edgeStyle=segmentEdgeStyle;endArrow=classic;html=1;curved=0;rounded=0;endSize=8;startSize=8;exitX=0;exitY=0.5;exitDx=0;exitDy=0;" edge="1" parent="1" source="01EeXhT7YWaGcu1_lApe-16" target="01EeXhT7YWaGcu1_lApe-20">
          <mxGeometry width="50" height="50" relative="1" as="geometry">
            <mxPoint x="480" y="517" as="sourcePoint" />
            <mxPoint x="530" y="467" as="targetPoint" />
          </mxGeometry>
        </mxCell>
        <mxCell id="01EeXhT7YWaGcu1_lApe-25" value="&lt;font style=&quot;font-size: 16px;&quot;&gt;Thông báo hồi sinh&lt;/font&gt;" style="rounded=1;whiteSpace=wrap;html=1;" vertex="1" parent="1">
          <mxGeometry x="60" y="400" width="140" height="100" as="geometry" />
        </mxCell>
        <mxCell id="01EeXhT7YWaGcu1_lApe-26" value="" style="line;strokeWidth=2;html=1;" vertex="1" parent="1">
          <mxGeometry x="60" y="420" width="140" height="10" as="geometry" />
        </mxCell>
        <mxCell id="01EeXhT7YWaGcu1_lApe-27" value="&lt;font style=&quot;font-size: 16px;&quot;&gt;6.0&lt;/font&gt;" style="text;html=1;align=center;verticalAlign=middle;resizable=0;points=[];autosize=1;strokeColor=none;fillColor=none;" vertex="1" parent="1">
          <mxGeometry x="105" y="400" width="50" height="30" as="geometry" />
        </mxCell>
        <mxCell id="01EeXhT7YWaGcu1_lApe-28" value="" style="edgeStyle=segmentEdgeStyle;endArrow=classic;html=1;curved=0;rounded=0;endSize=8;startSize=8;exitX=0;exitY=0.5;exitDx=0;exitDy=0;" edge="1" parent="1" source="01EeXhT7YWaGcu1_lApe-20">
          <mxGeometry width="50" height="50" relative="1" as="geometry">
            <mxPoint x="80" y="550" as="sourcePoint" />
            <mxPoint x="130" y="500" as="targetPoint" />
          </mxGeometry>
        </mxCell>
        <mxCell id="01EeXhT7YWaGcu1_lApe-29" value="" style="edgeStyle=segmentEdgeStyle;endArrow=classic;html=1;curved=0;rounded=0;endSize=8;startSize=8;exitX=0.3;exitY=0;exitDx=0;exitDy=0;exitPerimeter=0;" edge="1" parent="1" source="01EeXhT7YWaGcu1_lApe-27">
          <mxGeometry width="50" height="50" relative="1" as="geometry">
            <mxPoint x="70" y="180" as="sourcePoint" />
            <mxPoint x="120" y="130" as="targetPoint" />
          </mxGeometry>
        </mxCell>
        <mxCell id="01EeXhT7YWaGcu1_lApe-30" value="&lt;font style=&quot;font-size: 14px;&quot;&gt;Hiển thị&lt;/font&gt;" style="text;html=1;align=center;verticalAlign=middle;resizable=0;points=[];autosize=1;strokeColor=none;fillColor=none;" vertex="1" parent="1">
          <mxGeometry x="55" y="250" width="70" height="30" as="geometry" />
        </mxCell>
      </root>
    </mxGraphModel>
  </diagram>
</mxfile>
